<?xml version="1.0" standalone="no"?>
<!DOCTYPE svg PUBLIC "-//W3C//DTD SVG 20010904//EN"
 "http://www.w3.org/TR/2001/REC-SVG-20010904/DTD/svg10.dtd">
<svg version="1.0" xmlns="http://www.w3.org/2000/svg"
 width="1024.000000pt" height="1024.000000pt" viewBox="0 0 1024.000000 1024.000000"
 preserveAspectRatio="xMidYMid meet">

<g transform="translate(0.000000,1024.000000) scale(0.100000,-0.100000)"
fill="#000000" stroke="none">
<path d="M3255 8122 c-30 -6 -63 -41 -75 -78 -28 -83 45 -318 148 -478 15 -23
63 -86 108 -141 204 -251 478 -413 788 -465 l99 -16 -74 -41 c-383 -211 -672
-624 -755 -1078 -20 -108 -28 -362 -16 -460 6 -44 9 -81 8 -82 -6 -6 -171 79
-226 117 -84 57 -184 153 -237 227 -86 121 -106 112 -184 -84 -77 -194 -102
-324 -101 -528 1 -164 16 -270 56 -389 14 -42 26 -78 26 -80 0 -2 -40 -6 -89
-10 -49 -4 -126 -13 -172 -21 -99 -18 -276 -20 -351 -4 -90 18 -190 75 -278
155 -89 82 -116 91 -142 47 -37 -63 -52 -153 -52 -303 0 -156 18 -253 71 -383
142 -349 340 -537 786 -744 248 -114 399 -143 792 -150 282 -5 366 0 756 41
75 8 220 20 322 26 l187 12 82 -34 c135 -57 207 -72 348 -72 159 0 283 27 410
89 40 20 53 21 115 14 39 -5 160 -16 270 -24 110 -9 270 -23 355 -32 113 -12
251 -17 505 -17 324 -1 360 1 480 22 174 31 308 77 500 172 350 173 512 322
649 597 77 155 126 345 126 488 0 85 -26 226 -51 280 -30 64 -54 61 -136 -15
-79 -74 -152 -124 -224 -152 -82 -32 -262 -36 -451 -9 -82 12 -169 21 -194 21
-40 0 -45 2 -39 18 4 9 18 52 31 94 83 278 69 583 -39 865 -62 161 -91 202
-131 187 -9 -3 -37 -36 -63 -73 -97 -135 -250 -261 -393 -322 -38 -16 -73 -29
-78 -29 -4 0 -2 44 6 98 25 178 6 450 -45 632 -49 179 -147 385 -250 529 -68
95 -215 250 -308 324 l-50 40 38 -7 c81 -15 236 -65 324 -104 106 -47 164 -84
246 -160 53 -48 63 -53 91 -48 64 13 85 73 93 263 6 145 -2 209 -43 333 -85
260 -319 476 -599 551 -115 31 -298 31 -414 0 -97 -25 -208 -74 -276 -121
l-46 -32 8 79 c17 171 9 197 -72 234 -45 21 -135 25 -184 8 -57 -20 -65 -52
-52 -208 8 -86 9 -164 4 -211 l-9 -75 -18 58 c-25 77 -108 220 -175 301 -200
242 -512 353 -886 316 -307 -30 -494 -25 -690 20 -104 23 -136 28 -160 22z
m295 -197 c122 -19 262 -19 480 1 110 9 209 13 265 8 341 -25 598 -203 727
-504 l19 -45 -38 36 c-21 20 -72 62 -113 93 -41 31 -102 80 -135 107 -53 44
-233 159 -250 159 -9 0 28 -46 88 -110 99 -105 99 -101 5 -68 -46 16 -141 43
-213 58 -71 16 -144 33 -160 38 -41 12 -131 59 -182 93 -23 16 -46 29 -52 29
-35 0 21 -95 82 -140 l47 -35 -42 -8 c-64 -12 -211 0 -292 24 -129 38 -270
123 -354 213 -50 53 -72 70 -56 44 4 -7 3 -8 -5 -4 -6 4 -9 11 -6 16 3 5 1 11
-5 15 -27 17 -4 22 43 9 28 -8 95 -21 147 -29z m-139 -85 c6 0 7 5 4 10 -3 6
-4 10 -1 10 15 0 12 -19 -6 -34 -17 -15 -20 -16 -15 -3 3 9 2 19 -3 22 -6 4
-10 12 -10 18 0 7 5 4 11 -5 5 -10 15 -18 20 -18z m27 -105 c-3 -3 -9 2 -12
12 -6 14 -5 15 5 6 7 -7 10 -15 7 -18z m42 15 c0 -5 -4 -10 -10 -10 -5 0 -10
5 -10 10 0 6 5 10 10 10 6 0 10 -4 10 -10z m-2 -72 c6 -16 10 -28 7 -28 -5 0
-35 56 -35 67 0 12 15 -10 28 -39z m2707 -83 c188 -50 380 -204 464 -371 31
-64 60 -178 65 -263 5 -65 4 -69 -4 -28 -10 56 -36 98 -115 182 -36 38 -50 49
-39 30 12 -21 6 -17 -22 15 -60 71 -153 159 -185 175 -41 21 -36 33 14 37 l42
4 -30 13 c-16 7 -77 21 -135 32 -258 47 -267 50 -182 74 34 10 62 22 62 27 0
22 -232 -12 -325 -48 -78 -30 -219 -64 -229 -54 -5 5 -2 9 10 9 10 0 51 9 89
20 66 19 67 20 20 14 -27 -3 -60 -10 -73 -14 -31 -12 -89 -11 -97 0 -14 23
161 113 272 141 43 10 92 21 108 24 55 8 229 -3 290 -19z m-2624 -42 c13 -16
12 -17 -3 -4 -17 13 -22 21 -14 21 2 0 10 -8 17 -17z m815 -24 c130 -23 396
-112 441 -147 l23 -17 -28 -1 c-15 -1 -58 -9 -97 -18 -129 -31 -243 -31 -410
-2 -82 14 -192 37 -244 51 -51 14 -119 25 -150 26 -54 1 -55 1 -21 10 19 6 91
28 160 50 189 60 229 66 326 48z m-700 -100 c19 -22 19 -22 -3 -8 -13 8 -23
17 -23 21 0 12 6 9 26 -13z m65 -60 l34 -31 -32 21 c-18 12 -35 26 -38 31 -11
18 2 10 36 -21z m2259 -3 c214 -46 387 -151 474 -289 17 -28 17 -28 -3 -17
-12 6 -26 8 -31 5 -6 -3 -10 -1 -10 4 0 6 -6 11 -14 11 -8 0 -45 15 -83 34
-37 18 -119 46 -181 60 -62 15 -128 36 -145 47 -18 10 -39 19 -48 19 -9 0 -37
16 -62 35 -47 36 -162 95 -184 95 -7 0 -13 5 -13 12 0 14 207 3 300 -16z
m-345 -206 c74 -76 77 -81 40 -62 -54 27 -164 58 -253 72 -40 7 -72 15 -70 18
2 4 16 44 33 88 l29 82 71 -58 c38 -32 106 -95 150 -140z m-1748 103 c10 -10
14 -15 8 -11 -6 4 -22 12 -36 17 -15 6 -18 10 -8 10 9 1 25 -7 36 -16z m68
-41 c-3 -3 -11 0 -18 7 -9 10 -8 11 6 5 10 -3 15 -9 12 -12z m1029 -8 c5 -14
4 -15 -9 -4 -17 14 -19 20 -6 20 5 0 12 -7 15 -16z m431 -199 c74 -10 229 -62
317 -106 268 -135 480 -335 617 -584 190 -344 241 -742 142 -1110 -38 -144
-111 -296 -241 -500 -125 -198 -184 -326 -270 -585 -32 -96 -72 -208 -88 -248
-118 -285 -357 -504 -635 -582 -83 -24 -243 -28 -332 -10 -280 58 -503 275
-611 594 -13 38 -24 77 -23 85 0 9 8 -5 17 -31 9 -26 20 -50 25 -54 4 -4 7
-17 7 -28 0 -17 2 -18 10 -6 8 12 10 12 11 -5 0 -11 3 -14 6 -7 2 6 10 12 15
12 6 0 8 -3 5 -7 -9 -8 41 -97 100 -180 131 -184 326 -284 553 -284 139 0 215
18 331 76 124 63 212 139 300 262 77 106 133 228 198 432 84 261 157 418 300
646 133 210 194 344 238 522 23 95 27 129 27 278 1 192 -15 302 -65 450 -40
117 -125 290 -191 390 -132 198 -390 401 -641 505 -54 22 -106 45 -115 50 -9
5 -34 12 -54 15 -21 3 -38 11 -38 16 0 6 8 8 18 6 9 -3 40 -8 67 -12z m-130
-99 c119 -21 163 -37 232 -82 83 -54 106 -76 91 -86 -9 -6 -7 -8 7 -6 12 2 19
-2 17 -10 -1 -8 2 -11 9 -7 13 9 67 -41 127 -120 26 -33 50 -61 54 -63 4 -2 6
-13 3 -25 -6 -24 10 -56 21 -44 4 3 1 13 -6 22 -7 9 -10 18 -8 21 8 8 48 -60
48 -81 0 -10 3 -15 7 -12 8 9 32 -24 32 -43 0 -8 -5 -4 -11 10 -10 24 -10 24
-18 5 -13 -33 6 -98 21 -74 6 9 8 0 8 -26 -2 -41 19 -125 30 -125 4 0 7 -8 7
-17 1 -10 9 -82 19 -160 15 -123 16 -159 6 -276 -11 -126 -48 -285 -72 -311
-5 -6 -9 -17 -9 -26 0 -10 -25 -68 -56 -130 -45 -90 -54 -114 -43 -122 11 -7
10 -8 -5 -6 -10 2 -23 -6 -30 -17 -6 -10 -17 -25 -23 -33 -7 -7 -13 -17 -13
-22 0 -8 -127 -181 -140 -190 -4 -3 -11 -12 -16 -21 -9 -17 -55 -74 -100 -126
-74 -84 -122 -193 -153 -345 -21 -105 -58 -182 -120 -251 -41 -45 -142 -117
-165 -117 -9 0 -16 -4 -16 -8 0 -34 -267 -51 -365 -23 -161 45 -372 198 -482
348 -26 34 -48 61 -50 59 -3 -2 8 -28 24 -58 15 -29 30 -57 31 -63 7 -19 -27
32 -50 76 -38 70 -50 89 -103 164 -108 149 -231 368 -219 387 4 6 3 8 -3 5
-23 -14 -135 290 -152 410 -20 142 -23 364 -6 478 87 581 545 1064 1085 1144
41 6 86 13 100 15 54 10 370 -3 455 -18z m655 -566 c0 -5 -2 -10 -4 -10 -3 0
-8 5 -11 10 -3 6 -1 10 4 10 6 0 11 -4 11 -10z m28 -51 c7 -12 11 -23 9 -25
-6 -6 -37 25 -37 37 0 16 15 10 28 -12z m102 -70 c0 -5 -4 -9 -10 -9 -5 0 -10
7 -10 16 0 8 5 12 10 9 6 -3 10 -10 10 -16z m-65 -19 c3 -5 1 -10 -4 -10 -6 0
-11 5 -11 10 0 6 2 10 4 10 3 0 8 -4 11 -10z m175 -21 c0 -6 -4 -7 -10 -4 -5
3 -10 11 -10 16 0 6 5 7 10 4 6 -3 10 -11 10 -16z m-163 -41 c-3 -8 -6 -5 -6
6 -1 11 2 17 5 13 3 -3 4 -12 1 -19z m-40 -20 c-3 -7 -5 -2 -5 12 0 14 2 19 5
13 2 -7 2 -19 0 -25z m194 19 c-1 -12 -15 -9 -19 4 -3 6 1 10 8 8 6 -3 11 -8
11 -12z m-135 -52 c-3 -8 -10 -15 -15 -15 -5 0 -4 11 2 25 12 25 23 16 13 -10z
m181 -32 c-3 -3 -11 -2 -17 2 -8 5 -7 11 2 22 12 15 13 14 16 -1 2 -10 1 -20
-1 -23z m-160 -165 c-3 -8 -6 -5 -6 6 -1 11 2 17 5 13 3 -3 4 -12 1 -19z m-80
-370 c-3 -8 -6 -5 -6 6 -1 11 2 17 5 13 3 -3 4 -12 1 -19z m-2790 -279 c64
-42 274 -139 301 -139 6 0 16 -17 22 -37 7 -21 25 -73 41 -115 16 -43 29 -79
29 -81 0 -10 -160 38 -209 62 -109 56 -254 177 -328 275 -63 83 -65 85 -52 48
6 -18 15 -35 20 -38 5 -3 9 -21 9 -41 0 -30 2 -34 15 -23 8 7 15 9 15 5 0 -14
-32 -45 -46 -45 -22 0 -43 92 -49 214 l-6 119 83 -78 c46 -43 115 -100 155
-126z m4030 121 c-11 -41 -70 -144 -104 -181 -20 -22 -23 -31 -14 -46 7 -15 7
-20 -4 -20 -8 0 -11 7 -7 16 3 9 -22 -9 -56 -39 -150 -132 -219 -173 -348
-206 -53 -13 -99 -22 -101 -20 -8 8 75 221 89 228 7 4 63 27 125 51 136 54
254 131 348 226 64 65 70 69 76 49 3 -13 1 -39 -4 -58z m-16 -112 c-4 -32 -5
-32 -11 -8 -7 26 -4 40 9 40 4 0 5 -15 2 -32z m6 -100 c-3 -7 -5 -2 -5 12 0
14 2 19 5 13 2 -7 2 -19 0 -25z m-987 2 c0 -5 -4 -10 -10 -10 -5 0 -10 5 -10
10 0 6 5 10 10 10 6 0 10 -4 10 -10z m-3097 -58 c15 -16 15 -18 -1 -18 -10 0
-18 8 -18 18 0 10 1 18 2 18 0 0 8 -8 17 -18z m-83 -24 c0 -13 -23 -5 -28 10
-2 7 2 10 12 6 9 -3 16 -11 16 -16z m-95 -27 c3 -5 1 -12 -5 -16 -5 -3 -10 1
-10 9 0 18 6 21 15 7z m-28 -73 c-3 -7 -5 -2 -5 12 0 14 2 19 5 13 2 -7 2 -19
0 -25z m14 -21 c-10 -9 -11 -8 -5 6 3 10 9 15 12 12 3 -3 0 -11 -7 -18z m279
3 c0 -5 -2 -10 -4 -10 -3 0 -8 5 -11 10 -3 6 -1 10 4 10 6 0 11 -4 11 -10z
m-230 -21 c0 -4 -7 -6 -15 -3 -8 4 -15 10 -15 15 0 4 7 6 15 3 8 -4 15 -10 15
-15z m4270 1 c0 -4 -6 -12 -12 -18 -10 -8 -13 -5 -13 13 0 14 5 21 13 18 6 -3
12 -9 12 -13z m-4268 -55 c8 -14 2 -12 -21 9 -17 17 -31 34 -31 39 0 14 39
-23 52 -48z m283 45 c3 -6 -1 -7 -9 -4 -18 7 -21 14 -7 14 6 0 13 -4 16 -10z
m3777 -12 c-7 -7 -12 -8 -12 -2 0 14 12 26 19 19 2 -3 -1 -11 -7 -17z m-3872
-23 c11 -13 10 -14 -4 -9 -9 3 -16 10 -16 15 0 13 6 11 20 -6z m3850 1 c0 -2
-14 -19 -31 -37 -17 -19 -28 -27 -24 -19 13 26 55 69 55 56z m-3815 -45 c3 -5
2 -12 -3 -15 -5 -3 -9 1 -9 9 0 17 3 19 12 6z m-145 -16 c14 -8 21 -14 15 -14
-5 0 -21 6 -35 14 -14 8 -20 14 -15 14 6 0 21 -6 35 -14z m206 -36 c3 -6 -5
-3 -20 6 -14 10 -26 19 -26 22 0 7 39 -17 46 -28z m3674 5 c0 -8 -5 -12 -10
-9 -6 4 -8 11 -5 16 9 14 15 11 15 -7z m-3703 -10 c-3 -3 -12 -4 -19 -1 -8 3
-5 6 6 6 11 1 17 -2 13 -5z m-204 -76 c39 -22 54 -23 229 -23 102 0 190 -3
194 -8 4 -4 -7 -4 -24 -1 -22 4 -32 3 -32 -5 0 -7 4 -10 9 -7 5 3 6 -15 3 -41
-3 -33 -2 -44 6 -39 8 5 10 2 6 -8 -14 -37 -199 -7 -310 50 -68 35 -157 104
-134 104 6 0 30 -10 53 -22z m4130 -16 c-96 -82 -209 -121 -350 -122 l-72 0 2
35 c1 19 5 35 9 35 4 0 8 12 10 28 2 18 8 26 18 23 8 -2 74 -6 145 -8 110 -4
139 -1 190 15 80 27 86 26 48 -6z m-504 -96 c-2 -2 -15 -7 -29 -11 l-25 -8 25
21 c14 11 27 16 29 11 1 -6 1 -12 0 -13z m-769 -36 c0 -5 -4 -10 -10 -10 -5 0
-10 5 -10 10 0 6 5 10 10 10 6 0 10 -4 10 -10z m-3882 -159 c101 -51 171 -65
317 -65 72 0 182 8 245 17 63 9 154 19 202 22 l86 7 43 -64 c23 -35 71 -93
106 -129 l64 -66 -51 24 c-55 26 -203 67 -222 61 -6 -2 2 -13 19 -24 50 -32
127 -104 111 -104 -21 0 -138 49 -168 70 -52 36 -130 70 -184 78 -31 5 -56 6
-56 2 0 -6 98 -88 160 -133 24 -17 22 -18 -100 -13 -188 7 -283 47 -395 167
-51 55 -55 58 -55 34 0 -14 7 -40 16 -56 8 -17 13 -33 11 -36 -8 -8 -111 60
-161 107 -69 64 -105 113 -113 151 l-6 32 34 -25 c19 -14 62 -40 97 -57z
m6258 2 c-36 -61 -107 -133 -158 -159 -15 -8 -28 -19 -28 -24 0 -6 -7 -10 -15
-10 -9 0 -29 -14 -45 -30 -17 -17 -30 -27 -30 -22 0 4 4 12 9 18 13 13 42 116
35 123 -3 3 -15 -8 -27 -24 -56 -79 -141 -138 -246 -171 -25 -8 -102 -17 -171
-21 l-125 -6 94 74 c52 40 89 75 82 77 -32 11 -109 -14 -225 -73 -70 -36 -137
-65 -149 -65 -20 0 -19 3 13 31 19 17 55 44 80 61 l45 30 -54 -6 c-44 -6 -132
-34 -226 -72 -11 -4 5 16 35 46 31 30 77 85 103 122 34 47 56 68 75 73 29 6
203 -8 304 -24 247 -41 442 -13 588 84 36 24 66 40 68 36 2 -5 -13 -35 -32
-68z m-2516 -23 c0 -5 -7 -7 -15 -4 -8 4 -12 10 -9 15 6 11 24 2 24 -11z
m1270 -80 c-8 -5 -17 -7 -19 -4 -3 3 1 9 9 14 8 5 17 7 19 4 3 -3 -1 -9 -9
-14z m-5111 -30 c0 -10 -3 -8 -9 5 -12 27 -12 43 0 25 5 -8 9 -22 9 -30z m46
-150 c3 -14 0 -9 -8 10 -26 65 -34 95 -28 110 2 8 10 -10 17 -40 7 -30 15 -66
19 -80z m3575 98 c0 -7 -5 -20 -10 -28 -8 -12 -10 -9 -10 13 0 15 5 27 10 27
6 0 10 -6 10 -12z m-1320 -42 c0 -6 -7 -2 -15 8 -8 11 -15 25 -15 30 0 6 7 2
15 -8 8 -11 15 -25 15 -30z m4031 -29 c-10 -9 -11 -8 -5 6 3 10 9 15 12 12 3
-3 0 -11 -7 -18z m-14 -39 c-3 -8 -6 -5 -6 6 -1 11 2 17 5 13 3 -3 4 -12 1
-19z m-6248 -15 c-2 -10 3 -29 10 -43 l12 -25 -19 24 c-11 13 -17 32 -15 42 7
24 15 25 12 2z m3756 -33 c3 -5 -1 -10 -9 -10 -9 0 -16 5 -16 10 0 6 4 10 9
10 6 0 13 -4 16 -10z m2435 -59 c-27 -44 -34 -50 -47 -39 -14 11 -12 14 9 23
14 6 23 16 20 24 -2 8 0 11 5 8 6 -4 16 5 23 18 7 14 15 23 17 21 2 -2 -10
-27 -27 -55z m-5841 38 c33 -12 43 -39 14 -39 -16 0 -16 2 -3 10 11 8 8 10
-15 8 -21 -2 -30 2 -33 15 -4 20 -4 20 37 6z m5548 5 c-3 -3 -12 -4 -19 -1 -8
3 -5 6 6 6 11 1 17 -2 13 -5z m-5817 -108 c0 -6 -11 6 -25 26 -14 20 -25 40
-25 44 0 5 11 -7 25 -26 14 -19 25 -39 25 -44z m2225 54 c3 -5 1 -10 -4 -10
-6 0 -11 5 -11 10 0 6 2 10 4 10 3 0 8 -4 11 -10z m-2105 -5 c0 -2 -10 -9 -22
-15 -22 -11 -22 -10 -4 4 21 17 26 19 26 11z m44 -3 c2 -4 -5 -9 -17 -9 -17
-2 -19 0 -7 7 18 12 18 12 24 2z m53 2 c-3 -3 -12 -4 -19 -1 -8 3 -5 6 6 6 11
1 17 -2 13 -5z m523 -28 c0 -2 -11 -24 -25 -47 -14 -24 -25 -56 -25 -71 0 -24
-5 -27 -47 -34 -167 -27 -468 34 -535 107 -36 39 -35 43 5 19 56 -32 111 -34
247 -6 69 13 139 27 155 29 40 5 225 8 225 3z m315 -1 c-5 -2 -43 -13 -84 -26
-80 -24 -126 -56 -148 -104 l-14 -30 5 44 c7 68 49 104 129 112 71 7 127 9
112 4z m4079 -5 c52 -12 95 -56 103 -105 l6 -40 -44 47 c-24 26 -69 61 -99 78
-44 24 -50 30 -30 30 14 0 43 -5 64 -10z m496 -20 c117 -27 231 -29 282 -7 20
9 39 21 43 27 3 5 11 10 17 10 6 0 1 -8 -10 -19 -12 -10 -22 -22 -22 -27 0
-26 -154 -85 -289 -109 -71 -13 -102 -15 -165 -6 -90 13 -121 30 -136 76 -6
19 -21 46 -33 61 l-21 27 120 -6 c65 -3 162 -15 214 -27z m-3995 10 c75 -12
172 -49 237 -92 46 -29 49 -33 32 -45 -10 -7 -28 -13 -41 -13 -13 0 -23 -5
-23 -11 0 -6 -7 -9 -15 -6 -8 4 -17 3 -19 -2 -7 -10 -87 -3 -171 15 -38 9 -88
20 -110 24 -61 14 -106 12 -166 -7 l-54 -17 60 -8 c61 -8 138 -29 190 -51 l29
-13 -49 -14 c-28 -7 -72 -25 -100 -41 -48 -26 -55 -27 -185 -26 -158 1 -230
-14 -357 -74 -45 -21 -84 -39 -87 -39 -3 0 -20 -9 -38 -20 l-33 -21 30 7 c17
4 32 10 35 14 6 7 78 41 94 44 6 1 16 4 21 7 6 3 19 9 29 13 16 5 17 4 7 -8
-7 -8 -26 -18 -43 -21 -23 -5 -27 -9 -17 -16 10 -6 4 -9 -18 -9 -39 0 -40 -4
-8 -35 25 -26 95 -36 95 -14 0 7 16 10 43 8 40 -4 43 -2 39 16 -3 11 -9 23
-15 26 -5 4 -5 9 2 13 6 4 11 3 11 -3 0 -6 15 -8 36 -6 22 3 33 1 29 -5 -6 -9
-2 -11 25 -14 6 -1 16 10 23 24 15 30 47 40 47 15 0 -14 3 -15 15 -5 8 7 15 9
15 5 0 -4 7 -2 15 5 9 7 18 10 21 7 8 -7 -71 -57 -90 -57 -8 0 -18 -5 -22 -11
-3 -6 -17 -8 -33 -4 -14 4 -23 3 -19 -1 21 -20 -187 -73 -226 -58 -9 3 -16 2
-16 -4 0 -17 -99 -23 -180 -11 -47 7 -106 25 -147 45 l-68 32 66 1 c121 2 200
41 389 196 212 173 347 239 545 265 86 11 103 11 170 0z m3069 -26 c145 -41
253 -102 407 -231 179 -149 267 -194 394 -202 l90 -6 -78 -34 c-43 -19 -90
-35 -105 -37 -15 -2 -40 -6 -57 -8 -38 -7 -125 3 -125 14 0 5 12 11 28 13 15
2 -28 5 -95 6 l-123 1 -1 28 c-1 15 -1 33 0 40 1 7 -9 12 -24 12 -14 0 -25 5
-25 11 0 6 -8 8 -19 4 -16 -5 -18 -2 -14 15 6 24 16 25 33 5 6 -8 21 -17 32
-21 11 -3 34 -22 51 -41 29 -33 33 -34 86 -32 31 2 61 0 68 -4 6 -4 14 -3 18
3 3 5 -1 10 -9 10 -9 0 -22 13 -31 29 -8 16 -20 31 -27 34 -10 4 -10 6 0 6 6
1 21 -8 32 -19 15 -15 25 -18 38 -11 15 9 14 11 -8 19 -14 5 -65 28 -115 50
-49 22 -109 45 -132 52 -53 13 -306 12 -297 -2 3 -5 -20 5 -51 23 -31 18 -82
42 -113 55 l-55 22 39 17 c50 21 149 44 194 46 l35 1 -33 14 c-64 28 -140 28
-247 1 -100 -26 -290 -47 -250 -28 l20 10 -20 1 c-11 0 -38 9 -60 18 l-39 18
39 27 c54 37 184 86 253 96 83 13 194 3 296 -25z m1307 3 c-10 -9 -11 -8 -5 6
3 10 9 15 12 12 3 -3 0 -11 -7 -18z m29 -2 c0 -7 -59 -65 -67 -65 -4 0 8 16
27 35 33 35 40 39 40 30z m-5999 -22 c13 -16 12 -17 -3 -4 -10 7 -18 15 -18
17 0 8 8 3 21 -13z m5914 -73 c-3 -5 -12 -10 -18 -10 -7 0 -6 4 3 10 19 12 23
12 15 0z m-2527 -27 c-4 -22 -22 -20 -26 1 -2 10 3 16 13 16 10 0 15 -7 13
-17z m-2303 -194 c-4 -5 -12 -9 -18 -8 -9 0 -8 2 1 6 6 2 9 10 6 15 -4 7 -2 8
5 4 6 -4 9 -12 6 -17z m635 6 c0 -2 -11 -21 -25 -41 -14 -21 -28 -48 -31 -60
-4 -15 -16 -24 -38 -28 -56 -11 -265 -96 -359 -147 -21 -12 -41 -19 -44 -15
-3 3 7 27 23 53 61 105 183 191 319 224 66 16 155 25 155 14z m2694 -15 c100
-25 187 -72 252 -135 49 -48 112 -151 100 -163 -3 -3 -6 -1 -6 5 0 10 -260
134 -310 147 -94 26 -139 49 -151 78 -7 17 -23 44 -37 59 l-24 29 50 0 c27 0
84 -9 126 -20z m-3419 -8 c-3 -3 -11 0 -18 7 -9 10 -8 11 6 5 10 -3 15 -9 12
-12z m285 -1 c0 -3 -9 -12 -20 -18 -23 -15 -38 1 -20 22 11 13 40 10 40 -4z
m-85 -3 c5 4 5 1 1 -5 -10 -19 -36 -16 -36 3 0 13 3 14 13 5 8 -6 18 -7 22 -3z
m3645 -8 c0 -5 -8 -10 -17 -10 -15 0 -16 2 -3 10 19 12 20 12 20 0z m-2919
-10 c26 -14 24 -23 -8 -38 -37 -17 -107 -108 -113 -146 l-6 -31 -18 46 c-21
55 -11 110 29 153 26 28 79 35 116 16z m2236 -12 c11 -13 26 -33 32 -45 15
-29 13 -101 -4 -138 l-13 -30 -1 31 c-1 31 -38 96 -70 122 -9 7 -34 21 -56 31
l-40 18 30 16 c44 24 97 22 122 -5z m953 -8 c8 -5 11 -10 5 -10 -5 0 -17 5
-25 10 -8 5 -10 10 -5 10 6 0 17 -5 25 -10z m-203 -22 c7 -6 10 -14 7 -19 -3
-5 0 -9 5 -9 6 0 11 -4 11 -10 0 -22 -72 -3 -91 23 -3 5 -10 8 -15 7 -5 -1
-10 3 -12 8 -7 21 69 20 95 0z m58 -58 c3 -6 -1 -7 -9 -4 -18 7 -21 14 -7 14
6 0 13 -4 16 -10z m183 -47 c-10 -2 -26 -2 -35 0 -10 3 -2 5 17 5 19 0 27 -2
18 -5z m-3515 -120 c-7 -2 -19 -2 -25 0 -7 3 -2 5 12 5 14 0 19 -2 13 -5z"/>
<path d="M5750 7480 c-8 -5 -10 -10 -5 -10 6 0 17 5 25 10 8 5 11 10 5 10 -5
0 -17 -5 -25 -10z"/>
<path d="M5680 6697 c0 -3 6 -12 13 -19 6 -7 24 -28 40 -46 20 -25 27 -29 26
-15 -1 15 -79 95 -79 80z"/>
<path d="M3780 5015 c0 -5 5 -17 10 -25 5 -8 10 -10 10 -5 0 6 -5 17 -10 25
-5 8 -10 11 -10 5z"/>
<path d="M3820 4920 c0 -5 5 -10 11 -10 5 0 7 5 4 10 -3 6 -8 10 -11 10 -2 0
-4 -4 -4 -10z"/>
<path d="M3860 4854 c0 -6 7 -19 15 -30 8 -10 14 -14 14 -9 0 6 -6 19 -14 29
-8 11 -15 15 -15 10z"/>
<path d="M3910 4775 c0 -10 24 -55 29 -55 4 0 15 -14 25 -31 10 -17 20 -28 23
-25 3 3 -11 30 -32 61 -36 51 -45 62 -45 50z"/>
<path d="M4020 4614 c0 -6 11 -24 25 -40 14 -16 25 -24 25 -19 0 14 -49 72
-50 59z"/>
<path d="M2320 4040 c0 -5 5 -10 11 -10 5 0 7 5 4 10 -3 6 -8 10 -11 10 -2 0
-4 -4 -4 -10z"/>
<path d="M7448 3883 c7 -3 16 -2 19 1 4 3 -2 6 -13 5 -11 0 -14 -3 -6 -6z"/>
<path d="M7538 3833 c7 -3 16 -2 19 1 4 3 -2 6 -13 5 -11 0 -14 -3 -6 -6z"/>
<path d="M3008 3443 c7 -3 16 -2 19 1 4 3 -2 6 -13 5 -11 0 -14 -3 -6 -6z"/>
<path d="M6328 3783 c7 -3 16 -2 19 1 4 3 -2 6 -13 5 -11 0 -14 -3 -6 -6z"/>
<path d="M7352 3501 c-10 -6 -10 -10 3 -21 8 -7 18 -10 22 -6 3 3 1 6 -6 6 -8
0 -11 7 -7 15 6 17 6 18 -12 6z"/>
<path d="M3366 3583 c-6 -14 -5 -15 5 -6 7 7 10 15 7 18 -3 3 -9 -2 -12 -12z"/>
<path d="M2396 3243 c-4 -5 -85 -8 -179 -8 -152 0 -176 -2 -204 -19 -42 -26
-57 -59 -43 -101 19 -58 87 -72 122 -25 25 35 66 40 125 15 46 -19 75 -19 208
4 144 25 147 27 143 64 -4 44 -55 77 -118 77 -26 0 -50 -3 -54 -7z"/>
<path d="M7703 3236 c-37 -17 -66 -57 -57 -79 7 -20 44 -32 163 -51 115 -19
158 -20 191 -1 43 25 93 19 128 -15 40 -38 66 -38 104 0 24 25 29 36 23 58 -8
33 -31 59 -69 79 -22 12 -60 14 -175 12 -80 -2 -175 0 -211 4 -48 6 -73 4 -97
-7z"/>
<path d="M1747 3182 c-23 -25 -22 -85 1 -105 29 -27 77 -22 102 10 23 30 21
65 -7 96 -21 23 -75 22 -96 -1z"/>
<path d="M8380 3180 c-26 -26 -26 -81 -1 -104 28 -25 79 -17 104 16 50 67 -43
148 -103 88z"/>
<path d="M3945 2953 c-146 -5 -135 27 -135 -388 0 -299 2 -346 16 -359 18 -19
6 -19 269 -6 240 12 245 14 245 96 0 65 -26 87 -93 80 -29 -3 -95 -7 -147 -8
l-95 -3 -3 59 c-2 41 1 62 10 67 7 5 64 9 126 9 106 0 114 1 137 25 19 18 25
35 25 69 0 72 -20 80 -175 71 l-126 -7 3 63 3 64 155 6 c85 3 156 7 157 7 11
10 24 81 19 104 -12 63 -10 62 -391 51z"/>
<path d="M4765 2936 c-155 -73 -195 -269 -74 -370 39 -33 58 -41 164 -70 64
-17 82 -26 94 -48 14 -24 14 -28 -3 -47 -29 -32 -74 -35 -142 -11 -101 38 -97
38 -144 -24 -42 -56 -43 -57 -24 -78 58 -64 240 -98 345 -64 71 23 110 56 144
118 51 94 30 214 -47 271 -41 30 -74 42 -164 62 -42 9 -79 24 -89 35 -35 38 6
90 70 90 13 0 50 -10 81 -21 l57 -22 43 49 c24 27 43 56 44 64 0 19 -52 54
-109 75 -69 24 -185 20 -246 -9z"/>
<path d="M5305 2948 c-11 -6 -23 -16 -27 -22 -4 -6 -8 -157 -8 -336 0 -380 -2
-370 84 -370 87 0 90 6 96 167 l5 138 63 -91 c77 -113 96 -131 117 -114 8 6
43 52 77 101 35 49 66 89 71 89 4 0 7 -58 7 -130 0 -156 7 -170 90 -170 37 0
55 5 70 20 19 19 20 33 20 360 l0 340 -26 16 c-48 32 -69 14 -199 -179 -66
-97 -122 -177 -125 -176 -3 0 -14 14 -26 32 -86 134 -199 296 -220 315 -28 25
-40 27 -69 10z"/>
<path d="M6317 2932 c-16 -18 -90 -201 -199 -492 -70 -189 -70 -190 -53 -217
14 -20 24 -23 80 -23 l65 0 28 50 27 50 120 -2 120 -3 25 -53 c14 -29 32 -57
40 -62 22 -14 124 -12 138 2 23 23 11 74 -79 327 -124 345 -148 409 -166 426
-22 23 -125 20 -146 -3z m109 -387 c18 -50 34 -91 34 -92 0 -2 -34 -3 -76 -3
-57 0 -75 3 -72 13 3 6 18 49 34 95 16 45 33 81 37 79 5 -1 24 -43 43 -92z"/>
<path d="M6860 2924 c-13 -14 -15 -78 -15 -386 0 -351 1 -370 19 -383 30 -23
106 -30 135 -14 25 14 26 19 31 134 3 66 8 119 13 118 4 -2 21 -3 38 -3 29 0
33 -5 99 -144 38 -80 77 -149 87 -154 16 -9 108 -16 155 -13 10 0 20 12 24 25
6 24 -7 54 -113 258 l-30 57 46 23 c31 17 55 39 76 73 27 43 30 57 30 124 -1
62 -5 85 -27 127 -64 122 -141 151 -443 169 -98 6 -113 5 -125 -11z m335 -187
c58 -29 78 -82 51 -135 -20 -38 -59 -50 -143 -44 l-61 4 -7 84 c-10 116 -10
117 72 109 38 -4 77 -12 88 -18z"/>
<path d="M3130 2913 c-49 -10 -49 -14 -50 -399 0 -284 3 -364 13 -378 12 -16
24 -18 82 -14 90 6 95 13 95 145 l0 103 51 0 c211 0 359 122 359 295 0 96 -45
179 -119 223 -45 26 -50 27 -226 29 -99 0 -191 -1 -205 -4z m326 -196 c33 -38
33 -99 0 -132 -27 -27 -83 -45 -143 -45 l-43 0 0 106 0 106 81 -4 c74 -3 83
-6 105 -31z"/>
<path d="M2773 2883 c-47 -9 -48 -14 -50 -392 -1 -196 1 -368 3 -383 7 -37 49
-50 116 -38 28 6 52 11 53 13 22 27 25 76 25 406 0 348 -1 362 -20 381 -20 20
-68 25 -127 13z"/>
<path d="M7592 2835 c-16 -36 -15 -86 3 -112 16 -22 32 -26 168 -38 l67 -7 0
-324 c0 -377 -5 -357 101 -369 102 -12 99 -24 99 352 l0 316 32 -7 c59 -12
166 -19 191 -12 21 5 27 14 32 49 7 48 -6 91 -32 105 -30 16 -486 71 -589 72
-56 0 -62 -2 -72 -25z"/>
<path d="M2126 2811 c-99 -15 -123 -22 -138 -41 -17 -21 -18 -49 -18 -410 0
-370 1 -388 19 -404 16 -15 30 -17 69 -11 98 13 96 10 102 180 l5 150 36 3
c21 2 40 -2 46 -10 6 -7 38 -65 72 -128 34 -63 66 -119 71 -124 15 -15 157 4
182 24 23 18 23 18 4 56 -10 22 -37 68 -60 104 -24 36 -54 84 -67 107 l-24 42
43 41 c66 64 86 111 87 201 0 67 -3 81 -30 125 -18 29 -49 60 -77 77 -61 38
-157 43 -322 18z m204 -188 c29 -24 32 -31 27 -66 -9 -67 -67 -107 -154 -107
l-33 0 0 94 c0 66 4 96 13 99 6 3 35 6 64 6 42 1 57 -4 83 -26z"/>
<path d="M2620 1760 c-118 -16 -260 -38 -315 -49 -188 -39 -205 -48 -205 -107
0 -57 19 -59 220 -25 96 16 271 42 389 57 164 21 219 32 237 47 31 24 30 52
-2 82 -34 31 -49 31 -324 -5z"/>
<path d="M7285 1779 c-48 -30 -57 -65 -22 -96 18 -18 57 -25 232 -48 185 -23
461 -64 551 -81 24 -4 38 0 60 19 25 22 27 28 19 53 -6 18 -24 35 -45 46 -42
20 -266 61 -480 87 -235 30 -292 33 -315 20z"/>
<path d="M1769 1686 c-17 -8 -25 -22 -27 -44 -4 -43 12 -62 54 -62 25 0 38 7
51 26 15 23 15 29 2 52 -18 32 -50 44 -80 28z"/>
<path d="M8380 1671 c-29 -55 11 -105 68 -85 21 7 28 17 30 42 2 18 -2 40 -9
48 -18 21 -76 18 -89 -5z"/>
</g>
</svg>
